HIERARCHY
ROOT Hips
{
	OFFSET -0.179506 -22.333345 2.821913
	CHANNELS 6 Xposition Yposition Zposition Zrotation Yrotation Xrotation 
	JOINT LeftUpLeg
	{
		OFFSET 6.951974 -9.140623 -0.681533
		CHANNELS 3 Zrotation Yrotation Xrotation
		JOINT LeftLeg
		{
			OFFSET 3.427654 -37.519855 -0.449580
			CHANNELS 3 Zrotation Yrotation Xrotation
			JOINT LeftFoot
			{
				OFFSET -1.359570 -39.796059 -4.369333
				CHANNELS 3 Zrotation Yrotation Xrotation
				JOINT LeftToe
				{
					OFFSET 2.635814 -5.579078 11.928840
					CHANNELS 3 Zrotation Yrotation Xrotation
					End Site
					{
						OFFSET 0.000000 0.000000 0.000000
					}
				}
			}
		}
	}
	JOINT RightUpLeg
	{
		OFFSET -6.767048 -9.052170 -0.431982
		CHANNELS 3 Zrotation Yrotation Xrotation
		JOINT RightLeg
		{
			OFFSET -3.829005 -38.256897 -0.885003
			CHANNELS 3 Zrotation Yrotation Xrotation
			JOINT RightFoot
			{
				OFFSET 1.577377 -39.841461 -4.231180
				CHANNELS 3 Zrotation Yrotation Xrotation
				JOINT RightToe
				{
					OFFSET -2.537174 -4.814398 12.334795
					CHANNELS 3 Zrotation Yrotation Xrotation
					End Site
					{
						OFFSET 0.000000 0.000000 0.000000
					}
				}
			}
		}
	}
	JOINT Spine
	{
		OFFSET -0.253288 10.896323 -2.669631
		CHANNELS 3 Zrotation Yrotation Xrotation
		JOINT Spine1
		{
			OFFSET 0.548704 13.518043 0.109247
			CHANNELS 3 Zrotation Yrotation Xrotation
			JOINT Spine2
			{
				OFFSET 0.145701 5.292222 2.542457
				CHANNELS 3 Zrotation Yrotation Xrotation
				JOINT Neck
				{
					OFFSET -0.277840 21.387037 -4.285703
					CHANNELS 3 Zrotation Yrotation Xrotation
					JOINT Head
					{
						OFFSET 0.515184 6.496960 5.134897
						CHANNELS 3 Zrotation Yrotation Xrotation
						End Site
						{
							OFFSET 0.000000 0.000000 0.000000
						}
					}
				}
				JOINT LeftShoulder
				{
					OFFSET 7.884473 12.174932 -3.408961
					CHANNELS 3 Zrotation Yrotation Xrotation
					JOINT LeftArm
					{
						OFFSET 9.097692 3.046888 -0.886815
						CHANNELS 3 Zrotation Yrotation Xrotation
						JOINT LeftForeArm
						{
							OFFSET 25.961220 -1.277207 -2.745643
							CHANNELS 3 Zrotation Yrotation Xrotation
							JOINT LeftHand
							{
								OFFSET 24.923361 0.898606 -0.117091
								CHANNELS 3 Zrotation Yrotation Xrotation
								End Site
								{
									OFFSET 0.000000 0.000000 0.000000
								}
							}
						}
					}
				}
				JOINT RightShoulder
				{
					OFFSET -8.175920 11.883285 -3.861528
					CHANNELS 3 Zrotation Yrotation Xrotation
					JOINT RightArm
					{
						OFFSET -9.601238 3.255117 -0.914307
						CHANNELS 3 Zrotation Yrotation Xrotation
						JOINT RightForeArm
						{
							OFFSET -25.374195 -1.332924 -2.140099
							CHANNELS 3 Zrotation Yrotation Xrotation
							JOINT RightHand
							{
								OFFSET -25.529810 0.777228 -0.555919
								CHANNELS 3 Zrotation Yrotation Xrotation
								End Site
								{
									OFFSET 0.000000 0.000000 0.000000
								}
							}
						}
					}
				}
			}
		}
	}
}
MOTION
Frames: 7
Frame Time: 0.033333
-249.244644 255.983917 90.627617 40.942572 -1.846528 103.242840 11.521118 -8.217559 -57.618249 -9.321273 15.335229 45.674142 5.332494 5.030293 -19.187364 nan nan nan 4.440169 0.696875 15.007279 4.333836 20.215021 30.008227 12.995729 2.934000 7.078762 nan nan nan -9.134211 16.764958 11.783649 2.349699 0.259686 1.570164 1.809918 5.070258 -2.708230 3.629283 -9.810811 -21.519717 8.095377 -11.673902 -14.880171 -10.490774 -0.361709 6.478582 -34.736251 19.430201 18.263007 -145.138536 -60.710144 -168.769820 9.303321 -13.075397 12.873696 10.020456 14.942644 -6.488774 41.866496 15.478844 7.507264 -38.122217 78.061305 -13.376736 22.793657 7.552309 -1.698113 
-247.398331 254.137329 90.688469 41.279327 -1.433123 102.392260 10.431681 -7.829630 -55.423744 -9.545000 14.096047 45.783426 5.469984 4.316094 -19.505574 nan nan nan 5.138385 0.266012 14.357735 4.679714 19.029534 33.688595 12.839994 2.909042 7.482357 nan nan nan -8.603861 16.014188 12.657693 2.212239 0.529036 1.462026 1.723734 4.991755 -2.657369 4.093384 -9.766459 -22.090232 8.070316 -11.351491 -13.903169 -12.600788 -0.546605 5.366546 -35.587433 18.073602 18.228746 -145.227181 -63.036027 -168.787991 10.808224 -12.928150 16.019512 11.529132 14.641876 -6.095371 42.695543 13.469050 8.748826 -30.333380 78.246463 -6.938896 20.497035 9.558521 -3.363186 
-245.381943 252.358505 90.659668 41.871646 -1.592248 101.565315 8.851519 -8.262314 -52.753771 -9.589922 12.991004 44.901445 5.937794 4.200160 -19.303442 nan nan nan 5.581998 1.099252 13.597829 4.931684 16.405134 37.433331 12.608498 2.160265 7.059356 nan nan nan -8.329912 14.994860 12.958923 2.076541 0.487730 2.261556 1.445037 4.862203 -3.045909 4.420266 -9.924001 -21.433213 8.151663 -10.731397 -13.678871 -14.900291 -1.316888 4.959796 -36.867175 16.947788 18.563482 -146.665784 -66.122879 -167.922467 13.874283 -13.299898 18.151802 13.076895 14.908290 -5.215675 43.341383 11.547645 9.641861 -24.878320 77.896856 -1.834134 19.163399 9.657107 -3.705651 
-243.614929 250.506729 90.607368 42.347252 -1.286080 100.762947 7.620745 -7.834514 -50.082532 -9.712701 11.463094 44.389493 6.018674 4.067999 -19.204365 nan nan nan 6.297424 0.849486 12.369078 4.898153 14.761142 41.592779 11.772905 0.639557 6.815376 nan nan nan -8.012110 14.048880 14.270534 1.964670 0.657101 1.158590 1.290772 4.697978 -2.542106 5.025603 -9.640723 -21.909965 8.189337 -10.447522 -12.582698 -16.416324 -1.498606 3.886029 -36.977832 14.517605 18.263427 -145.042992 -67.717547 -168.091295 12.984420 -12.272944 17.554473 14.732556 14.290807 -4.884853 44.258442 9.985470 10.759866 -19.481264 77.480513 5.078744 20.637405 9.118903 -5.061087 
-241.666672 248.655991 90.485039 42.952623 -1.212957 100.032837 6.364788 -7.996024 -47.037131 -9.686688 9.983902 43.273423 6.123191 3.993650 -19.313703 nan nan nan 6.298856 0.575520 11.198137 4.589462 12.403659 45.148180 10.271130 -0.990682 6.160830 nan nan nan -7.649617 13.330927 14.803437 1.778620 0.492629 1.311042 1.153683 4.353701 -2.659181 5.368658 -9.701163 -21.319149 8.472129 -9.824400 -12.333619 -18.609837 -2.095069 3.707812 -38.298659 13.057790 18.147504 -146.831061 -70.326233 -166.855541 12.402591 -11.299306 18.395612 16.510394 13.941877 -4.217178 44.560947 7.696089 11.372537 -14.580630 77.018458 11.144542 21.742387 8.471974 -3.997146 
-239.808990 246.705566 90.402962 43.401599 -1.593593 98.966634 4.745601 -8.263534 -43.062510 -9.580101 8.481856 41.346439 5.675880 4.234504 -19.226666 nan nan nan 5.961235 0.870570 10.285856 3.456920 9.195914 48.709072 9.028724 -2.367802 4.316174 nan nan nan -8.025459 12.587736 16.311067 1.360824 0.388154 0.881200 1.295928 4.004436 -3.062215 5.793856 -9.268214 -20.780608 8.741624 -9.528613 -11.770012 -20.428145 -2.809172 3.587075 -39.536797 12.102541 18.813322 -146.629508 -71.885886 -169.091049 7.125043 -10.876105 19.484395 17.921408 13.610743 -4.101541 45.712485 5.237249 12.292733 -11.865978 75.630969 13.433931 24.982248 6.586899 -2.345679 
-237.923630 244.891617 90.140770 44.434369 -1.614214 98.210317 3.248896 -8.068785 -40.306442 -9.323113 7.274695 41.139525 5.715757 5.018688 -18.345913 nan nan nan 5.939746 0.670057 8.634370 2.397175 6.322029 52.482785 7.756176 -3.836554 2.181721 nan nan nan -7.422910 11.626568 17.169518 1.041158 0.037133 0.820497 1.138967 3.345418 -3.115743 5.860512 -9.806797 -20.254372 9.066475 -8.432323 -11.317850 -22.002578 -3.901122 3.432360 -40.955899 10.092368 18.261322 -151.781258 -73.954232 -163.791043 10.563447 -8.672824 19.983348 18.832150 13.263646 -4.027999 46.778512 2.921578 12.504592 -7.830779 73.353791 18.442323 24.542165 5.505853 -0.314483 
